<?xml version="1.0" encoding="utf-8"?>
<!-- Generator: Adobe Illustrator 15.0.2, SVG Export Plug-In . SVG Version: 6.00 Build 0)  -->
<!DOCTYPE svg PUBLIC "-//W3C//DTD SVG 1.1//EN" "http://www.w3.org/Graphics/SVG/1.1/DTD/svg11.dtd">
<svg version="1.1" id="Calque_1" xmlns="http://www.w3.org/2000/svg" xmlns:xlink="http://www.w3.org/1999/xlink" x="0px" y="0px"
	 width="48px" height="48px" viewBox="0 0 48 48" enable-background="new 0 0 48 48" xml:space="preserve">
<rect fill="none" width="48" height="48"/>
<path fill="#F1BE41" d="M40.516,13.426v5.251H5.727L0.048,33.861V13.426h16.444l1.948-4.61c0.048-0.38,0.234-0.713,0.559-0.998
	s0.653-0.428,0.986-0.428h14.423c0.364,0,0.721,0.143,1.069,0.428s0.555,0.618,0.618,0.998v4.61H40.516L40.516,13.426z"/>
<g>
	<g>
		<polygon fill="#FFFFFF" points="42.441,15.716 42.441,27.541 32.613,37.369 2.955,36.924 2.955,15.54 		"/>
		<path fill="#999999" d="M43.537,28.024V14.803H2v23.308h31.453L43.537,28.024z M39.496,28.958h0.736l-5.842,5.849v-5.849H39.496z
			 M3.675,36.436V16.477h38.188v10.804h-9.148v9.155L3.675,36.436L3.675,36.436z"/>
	</g>
</g>
<g>
	<g>
		<polygon fill="#FFFFFF" points="45.441,18.716 45.441,22.541 35.613,32.369 5.955,37.924 5.955,18.54 		"/>
		<path fill="#999999" d="M46.537,23.024v-5.221H5v21.308l31.453-6L46.537,23.024z M42.496,23.958h0.736l-5.842,5.849v-5.849H42.496
			z M6.675,37.436V19.477h38.188v2.804h-9.148v9.155L6.675,37.436L6.675,37.436z"/>
	</g>
</g>
<path fill="#F1BE41" d="M48.048,21.006L40.563,40.61H0.143l7.485-19.604H48.048L48.048,21.006z"/>
</svg>
